<svg id="svg" version="1.1" xmlns="http://www.w3.org/2000/svg" xmlns:xlink="http://www.w3.org/1999/xlink" width="400" height="400" viewBox="0, 0, 400,400"><g id="svgg"><path id="path0" d="M74.800 82.798 L 74.800 120.396 117.700 120.498 L 160.600 120.600 160.600 196.100 L 160.600 271.600 198.100 271.600 L 235.600 271.600 235.600 211.200 L 235.600 150.800 223.400 150.800 L 211.200 150.800 211.200 199.000 L 211.200 247.200 198.198 247.200 L 185.196 247.200 185.202 171.700 L 185.208 96.200 142.304 96.000 L 99.400 95.800 99.294 82.900 L 99.189 70.000 198.200 70.000 L 297.211 70.000 297.106 82.900 L 297.000 95.800 279.300 95.904 L 261.600 96.008 261.600 108.204 L 261.600 120.400 291.700 120.400 L 321.800 120.400 321.704 82.900 L 321.608 45.400 198.204 45.299 L 74.800 45.199 74.800 82.798 M211.200 110.000 L 211.200 124.000 223.400 124.000 L 235.600 124.000 235.600 110.000 L 235.600 96.000 223.400 96.000 L 211.200 96.000 211.200 110.000 M26.400 298.200 L 26.400 303.600 39.000 303.600 L 51.600 303.600 51.600 328.600 L 51.600 353.600 56.800 353.600 L 62.000 353.600 62.000 328.600 L 62.000 303.600 74.600 303.600 L 87.200 303.600 87.200 298.200 L 87.200 292.800 56.800 292.800 L 26.400 292.800 26.400 298.200 M104.800 298.185 L 104.800 303.600 127.853 303.600 C 156.042 303.600,154.800 303.242,154.800 311.360 L 154.800 314.800 135.200 314.800 L 115.600 314.800 115.600 320.200 L 115.600 325.600 135.200 325.600 L 154.800 325.600 154.799 332.100 C 154.796 343.570,156.755 342.797,127.700 342.799 L 104.800 342.800 104.800 348.200 L 104.800 353.600 127.580 353.600 C 157.573 353.600,159.705 353.022,164.126 343.689 L 165.400 341.000 165.520 324.289 C 165.684 301.527,164.758 298.584,156.087 294.314 L 153.418 293.000 129.109 292.885 L 104.800 292.771 104.800 298.185 M195.172 293.347 C 191.393 294.366,187.501 297.379,185.456 300.869 C 183.286 304.571,183.148 306.052,183.280 324.289 L 183.400 341.000 184.674 343.689 C 189.095 353.022,191.227 353.600,221.220 353.600 L 244.000 353.600 244.000 348.200 L 244.000 342.800 221.100 342.799 C 192.045 342.797,194.004 343.570,194.001 332.100 L 194.000 325.600 213.600 325.600 L 233.200 325.600 233.200 320.200 L 233.200 314.800 213.600 314.800 L 194.000 314.800 194.000 311.360 C 194.000 303.242,192.758 303.600,220.947 303.600 L 244.000 303.600 244.000 298.200 L 244.000 292.800 220.500 292.827 C 203.209 292.847,196.517 292.984,195.172 293.347 M362.400 323.200 L 362.400 353.600 367.800 353.600 L 373.200 353.600 373.200 323.200 L 373.200 292.800 367.800 292.800 L 362.400 292.800 362.400 323.200 M301.800 323.006 C 293.440 339.398,286.540 352.988,286.467 353.205 C 286.383 353.453,288.558 353.600,292.331 353.600 L 298.328 353.600 307.664 335.208 C 312.799 325.092,317.090 316.815,317.200 316.815 C 317.310 316.814,321.606 325.091,326.747 335.207 L 336.094 353.600 342.047 353.600 C 345.321 353.600,348.000 353.503,348.000 353.384 C 348.000 352.987,317.403 293.201,317.200 293.201 C 317.090 293.202,310.160 306.614,301.800 323.006 M262.000 343.533 C 261.761 343.613,261.600 345.747,261.600 348.833 L 261.600 354.000 267.000 354.000 L 272.400 354.000 272.400 348.800 C 272.400 344.927,272.272 343.590,271.900 343.561 C 270.383 343.443,262.338 343.420,262.000 343.533 " stroke="none" fill="#79bbb7" fill-rule="evenodd"></path><path id="path1" d="M0.000 200.000 L 0.000 400.000 200.000 400.000 L 400.000 400.000 400.000 200.000 L 400.000 0.000 200.000 0.000 L 0.000 0.000 0.000 200.000 M322.302 82.900 L 322.404 120.800 291.796 120.800 L 261.189 120.800 261.294 108.127 L 261.400 95.455 278.600 95.396 C 288.060 95.363,296.028 95.305,296.306 95.268 C 296.704 95.215,296.789 92.576,296.706 82.900 L 296.600 70.600 198.200 70.600 L 99.800 70.600 99.800 83.000 L 99.800 95.400 142.200 95.463 C 165.520 95.497,184.935 95.542,185.345 95.563 C 186.069 95.599,186.085 97.696,185.945 171.099 L 185.800 246.599 198.100 246.604 C 206.138 246.608,210.401 246.470,210.403 246.205 C 210.405 245.982,210.404 224.425,210.400 198.300 L 210.394 150.800 223.197 150.800 L 236.000 150.800 236.000 211.602 L 236.000 272.404 198.100 272.302 L 160.200 272.200 160.000 196.600 L 159.800 121.000 117.100 120.898 L 74.400 120.796 74.400 82.798 L 74.400 44.799 198.300 44.899 L 322.200 45.000 322.302 82.900 M235.705 95.565 C 235.873 95.584,235.963 102.035,235.905 109.900 L 235.800 124.200 224.000 124.312 C 217.510 124.374,211.795 124.325,211.300 124.204 L 210.400 123.985 210.400 110.072 C 210.400 101.819,210.555 96.005,210.780 95.780 C 211.064 95.496,233.414 95.303,235.705 95.565 M87.200 298.000 L 87.200 303.600 74.800 303.600 L 62.400 303.600 62.400 328.600 L 62.400 353.600 56.800 353.600 L 51.200 353.600 51.200 328.600 L 51.200 303.600 38.800 303.600 L 26.400 303.600 26.400 298.000 L 26.400 292.400 56.800 292.400 L 87.200 292.400 87.200 298.000 M151.728 292.786 C 157.005 293.650,161.620 297.068,164.051 301.911 L 165.400 304.600 165.400 323.000 L 165.400 341.400 164.123 344.096 C 162.470 347.586,159.586 350.470,156.096 352.123 L 153.400 353.400 129.100 353.512 L 104.800 353.624 104.800 348.224 L 104.800 342.825 127.700 342.713 C 156.722 342.570,154.774 343.362,154.791 331.700 L 154.800 325.600 135.200 325.600 L 115.600 325.600 115.600 320.200 L 115.600 314.800 135.248 314.800 L 154.895 314.800 154.729 311.005 C 154.392 303.283,155.564 303.601,127.500 303.601 L 104.800 303.600 104.800 298.000 L 104.800 292.400 127.100 292.402 C 139.365 292.404,150.448 292.576,151.728 292.786 M244.000 298.000 L 244.000 303.600 221.300 303.601 C 193.236 303.601,194.408 303.283,194.071 311.005 L 193.905 314.800 213.552 314.800 L 233.200 314.800 233.200 320.200 L 233.200 325.600 213.600 325.600 L 194.000 325.600 194.009 331.700 C 194.026 343.362,192.078 342.570,221.100 342.713 L 244.000 342.825 244.000 348.224 L 244.000 353.624 219.700 353.512 L 195.400 353.400 192.704 352.123 C 189.214 350.470,186.330 347.586,184.677 344.096 L 183.400 341.400 183.400 323.000 L 183.400 304.600 184.749 301.911 C 187.096 297.236,191.831 293.635,196.712 292.812 C 197.750 292.637,208.815 292.473,221.300 292.447 L 244.000 292.400 244.000 298.000 M373.200 323.000 L 373.200 353.600 367.800 353.600 L 362.400 353.600 362.400 323.000 L 362.400 292.400 367.800 292.400 L 373.200 292.400 373.200 323.000 M320.090 298.100 C 322.643 303.156,328.604 314.837,342.240 341.510 L 348.431 353.620 342.127 353.510 L 335.822 353.400 326.611 335.307 C 321.545 325.356,317.310 317.214,317.200 317.214 C 317.090 317.214,312.859 325.356,307.797 335.307 L 298.595 353.400 292.305 353.510 L 286.015 353.620 293.308 339.309 C 297.318 331.437,304.290 317.753,308.800 308.899 C 313.310 300.045,317.093 292.801,317.207 292.801 C 317.321 292.800,318.618 295.185,320.090 298.100 M272.400 348.800 L 272.400 354.400 267.000 354.400 L 261.600 354.400 261.600 348.800 L 261.600 343.200 267.000 343.200 L 272.400 343.200 272.400 348.800 " stroke="none" fill="#fbfcfc" fill-rule="evenodd"></path><path id="path2" d="M198.098 45.100 L 321.996 45.201 322.101 83.001 L 322.206 120.800 322.203 82.900 L 322.200 45.000 198.200 44.999 L 74.200 44.998 198.098 45.100 M185.792 132.000 C 185.792 152.130,185.840 160.365,185.900 150.300 C 185.959 140.235,185.959 123.765,185.900 113.700 C 185.840 103.635,185.792 111.870,185.792 132.000 M210.580 110.000 C 210.580 117.810,210.634 121.005,210.699 117.100 C 210.765 113.195,210.765 106.805,210.699 102.900 C 210.634 98.995,210.580 102.190,210.580 110.000 M160.000 196.538 L 160.200 272.200 198.100 272.203 L 236.000 272.206 198.200 272.101 L 160.400 271.996 160.400 196.622 C 160.400 155.166,160.265 121.164,160.100 121.062 C 159.935 120.960,159.890 154.924,160.000 196.538 M217.325 124.299 C 220.804 124.366,226.384 124.366,229.725 124.299 C 233.066 124.232,230.220 124.178,223.400 124.178 C 216.580 124.178,213.846 124.233,217.325 124.299 M210.594 198.200 C 210.594 224.380,210.641 235.031,210.700 221.869 C 210.758 208.707,210.758 187.287,210.700 174.269 C 210.641 161.251,210.594 172.020,210.594 198.200 M41.500 292.700 C 49.915 292.760,63.685 292.760,72.100 292.700 C 80.515 292.640,73.630 292.590,56.800 292.590 C 39.970 292.590,33.085 292.640,41.500 292.700 M116.100 292.700 C 122.425 292.762,132.775 292.762,139.100 292.700 C 145.425 292.638,140.250 292.587,127.600 292.587 C 114.950 292.587,109.775 292.638,116.100 292.700 M209.700 292.700 C 216.025 292.762,226.375 292.762,232.700 292.700 C 239.025 292.638,233.850 292.587,221.200 292.587 C 208.550 292.587,203.375 292.638,209.700 292.700 M364.882 292.696 C 366.358 292.773,368.878 292.773,370.482 292.697 C 372.087 292.621,370.880 292.558,367.800 292.558 C 364.720 292.557,363.407 292.619,364.882 292.696 " stroke="none" fill="#bce4dc" fill-rule="evenodd"></path><path id="path3" d="M74.597 82.800 L 74.600 120.600 117.499 120.702 L 160.398 120.804 160.501 195.702 L 160.603 270.600 160.602 195.600 L 160.600 120.600 117.702 120.498 L 74.804 120.396 74.699 82.698 L 74.594 45.000 74.597 82.800 M321.792 83.000 C 321.792 103.460,321.841 111.771,321.900 101.470 C 321.959 91.168,321.959 74.428,321.900 64.270 C 321.840 54.111,321.792 62.540,321.792 83.000 M99.294 82.900 L 99.400 95.800 142.500 96.000 C 166.205 96.110,185.600 96.065,185.600 95.900 C 185.600 95.735,166.245 95.600,142.589 95.600 L 99.578 95.600 99.689 82.800 C 99.750 75.760,99.663 70.000,99.494 70.000 C 99.326 70.000,99.236 75.805,99.294 82.900 M279.200 95.594 L 261.400 95.800 261.400 108.200 L 261.400 120.600 291.600 120.604 L 321.800 120.608 291.700 120.501 L 261.600 120.395 261.600 108.197 L 261.600 96.000 279.176 96.000 C 290.463 96.000,296.841 95.857,297.000 95.600 C 297.136 95.380,297.192 95.242,297.124 95.294 C 297.056 95.345,288.990 95.480,279.200 95.594 M210.984 96.097 C 210.877 96.376,210.839 102.814,210.900 110.402 L 211.011 124.200 211.105 110.100 L 211.200 96.000 223.395 96.000 L 235.590 96.000 235.703 110.000 L 235.816 124.000 235.808 109.900 L 235.800 95.800 223.490 95.694 C 213.826 95.611,211.137 95.698,210.984 96.097 M185.394 147.000 C 185.394 174.720,185.442 186.001,185.500 172.069 C 185.558 158.137,185.558 135.457,185.500 121.669 C 185.442 107.881,185.394 119.280,185.394 147.000 M210.800 198.811 L 210.800 246.822 198.000 246.711 C 190.960 246.650,185.200 246.735,185.200 246.900 C 185.200 247.065,191.050 247.200,198.200 247.200 L 211.200 247.200 211.200 199.000 C 211.200 172.490,211.110 150.800,211.000 150.800 C 210.890 150.800,210.800 172.405,210.800 198.811 M235.699 211.098 L 235.600 271.596 197.900 271.700 L 160.200 271.804 197.913 271.902 C 227.787 271.980,235.665 271.896,235.815 271.500 C 235.920 271.225,235.959 243.910,235.901 210.800 L 235.797 150.600 235.699 211.098 M51.388 328.600 C 51.388 342.460,51.439 348.072,51.500 341.071 C 51.561 334.070,51.561 322.730,51.500 315.871 C 51.438 309.012,51.388 314.740,51.388 328.600 M62.188 328.600 C 62.188 342.460,62.239 348.072,62.300 341.071 C 62.361 334.070,62.361 322.730,62.300 315.871 C 62.238 309.012,62.188 314.740,62.188 328.600 " stroke="none" fill="#9fd4cc" fill-rule="evenodd"></path><path id="path4" d="M149.132 70.300 C 176.265 70.357,220.545 70.357,247.532 70.300 C 274.519 70.243,252.320 70.197,198.200 70.197 C 144.080 70.197,121.999 70.243,149.132 70.300 M296.978 83.000 C 296.978 89.820,297.032 92.666,297.099 89.325 C 297.166 85.984,297.166 80.404,297.099 76.925 C 297.033 73.446,296.978 76.180,296.978 83.000 M185.388 221.200 C 185.388 234.510,185.438 239.955,185.500 233.300 C 185.561 226.645,185.561 215.755,185.500 209.100 C 185.438 202.445,185.388 207.890,185.388 221.200 " stroke="none" fill="#b4dcd4" fill-rule="evenodd"></path></g></svg>