<svg id="svg" version="1.1" xmlns="http://www.w3.org/2000/svg" xmlns:xlink="http://www.w3.org/1999/xlink" width="400" height="400" viewBox="0, 0, 400,400"><g id="svgg"><path id="path0" d="M1.385 2.100 C 1.280 2.375,1.241 31.760,1.299 67.400 L 1.402 132.200 1.501 67.099 L 1.600 1.998 199.962 2.099 C 309.061 2.154,398.240 2.065,398.138 1.900 C 397.790 1.336,1.599 1.536,1.385 2.100 M2.899 3.130 C 2.500 3.384,2.418 16.508,2.499 67.424 L 2.600 131.400 70.400 131.604 C 107.690 131.716,138.245 131.851,138.300 131.904 C 138.355 131.957,138.355 132.135,138.300 132.300 C 138.245 132.465,138.605 133.005,139.100 133.500 L 140.000 134.400 140.000 265.357 C 140.000 383.201,140.062 396.338,140.619 396.552 C 141.423 396.861,257.923 396.895,258.421 396.587 C 258.937 396.268,258.936 190.009,258.420 188.653 C 258.150 187.943,258.179 187.599,258.520 187.466 C 258.784 187.363,250.495 187.258,240.100 187.233 C 222.834 187.191,221.200 187.243,221.200 187.842 C 221.200 188.384,221.306 188.410,221.809 187.992 C 222.318 187.570,222.377 187.594,222.166 188.143 C 222.028 188.505,221.753 188.800,221.555 188.800 C 221.345 188.800,221.201 223.168,221.207 272.100 L 221.218 355.400 220.109 356.302 L 219.000 357.204 199.895 357.188 C 189.387 357.178,180.477 357.042,180.095 356.885 C 179.713 356.728,188.310 356.507,199.200 356.394 L 219.000 356.189 199.114 356.094 C 179.815 356.003,179.216 355.977,178.808 355.215 C 178.516 354.670,178.420 314.436,178.494 223.648 C 178.552 151.719,178.450 92.717,178.267 92.533 C 178.083 92.350,147.123 92.110,109.467 92.000 C 68.517 91.880,41.225 91.655,41.561 91.439 C 42.024 91.141,41.989 90.981,41.365 90.525 C 40.949 90.220,40.385 89.303,40.113 88.486 C 39.814 87.589,39.696 87.436,39.816 88.100 C 39.926 88.705,39.836 89.200,39.618 89.200 C 39.154 89.200,38.831 46.952,39.288 46.000 C 39.759 45.018,39.759 45.008,39.997 66.400 L 40.227 87.000 40.300 66.083 C 40.340 54.579,40.480 44.994,40.610 44.783 C 40.761 44.540,98.932 44.400,200.061 44.400 L 359.275 44.400 359.486 45.208 C 359.652 45.844,359.816 45.919,360.249 45.559 C 360.693 45.191,360.801 45.305,360.804 46.151 C 360.808 47.521,360.808 88.667,360.804 89.233 C 360.802 89.472,360.592 89.597,360.339 89.513 C 359.837 89.346,358.000 90.999,358.000 91.618 C 358.000 91.857,347.961 92.000,331.233 92.000 C 316.511 92.000,304.181 92.109,303.833 92.243 C 302.947 92.583,302.860 130.420,303.743 131.153 C 304.140 131.482,316.771 131.576,350.843 131.502 L 397.400 131.400 397.501 67.730 C 397.593 10.242,397.541 3.998,396.973 3.430 C 396.281 2.738,3.986 2.440,2.899 3.130 M398.499 68.267 C 398.420 119.392,398.297 132.775,397.900 132.935 C 397.508 133.093,397.511 133.144,397.913 133.168 C 398.808 133.224,398.807 133.315,398.701 68.000 L 398.598 3.800 398.499 68.267 M358.700 43.500 C 358.898 44.094,41.402 44.250,41.034 43.656 C 40.917 43.466,40.937 43.196,41.078 43.055 C 41.613 42.520,358.521 42.964,358.700 43.500 M259.444 92.081 C 259.303 92.786,259.196 103.449,259.207 115.777 C 259.217 128.105,259.085 138.238,258.913 138.296 C 258.741 138.353,258.654 128.545,258.719 116.500 C 258.785 104.455,258.732 94.015,258.601 93.300 L 258.364 92.000 240.643 92.000 C 223.916 92.000,222.874 92.042,222.061 92.747 L 221.200 93.494 221.200 115.314 C 221.200 132.395,221.309 137.177,221.700 137.335 C 222.100 137.496,222.100 137.543,221.700 137.568 C 221.425 137.586,221.200 137.825,221.200 138.100 C 221.200 138.493,225.307 138.600,240.404 138.600 L 259.608 138.600 259.704 114.700 C 259.757 101.555,259.778 90.800,259.750 90.800 C 259.723 90.800,259.585 91.377,259.444 92.081 M36.732 132.700 C 55.284 132.757,85.524 132.757,103.932 132.700 C 122.339 132.642,107.160 132.595,70.200 132.595 C 33.240 132.595,18.179 132.642,36.732 132.700 M327.300 132.700 C 340.005 132.759,360.795 132.759,373.500 132.700 C 386.205 132.641,375.810 132.593,350.400 132.593 C 324.990 132.593,314.595 132.641,327.300 132.700 M259.204 292.798 C 259.205 350.949,259.296 398.437,259.406 398.327 C 259.668 398.066,259.663 187.530,259.402 187.268 C 259.292 187.158,259.203 234.647,259.204 292.798 M170.100 398.300 C 186.325 398.358,212.875 398.358,229.100 398.300 C 245.325 398.242,232.050 398.195,199.600 398.195 C 167.150 398.195,153.875 398.242,170.100 398.300 " stroke="none" fill="#7cc4bc" fill-rule="evenodd"></path><path id="path1" d="M0.899 66.700 L 0.998 132.200 1.100 66.900 L 1.202 1.599 199.901 1.700 L 398.600 1.800 398.701 67.502 L 398.802 133.203 350.501 133.102 L 302.200 133.000 302.200 111.800 L 302.200 90.600 330.515 90.400 C 355.100 90.226,358.879 90.121,359.209 89.600 C 359.717 88.796,359.717 46.004,359.208 45.200 C 358.795 44.545,42.194 44.046,41.541 44.699 C 41.376 44.864,112.432 44.955,199.444 44.899 C 308.166 44.830,357.891 44.928,358.424 45.213 C 359.324 45.694,359.668 87.579,358.786 89.226 C 358.383 89.980,357.643 90.000,330.486 90.006 C 315.149 90.009,302.373 90.156,302.096 90.332 C 301.700 90.584,301.615 95.191,301.696 112.026 L 301.800 133.400 350.400 133.400 L 399.000 133.400 399.101 67.300 L 399.202 1.200 200.001 1.200 L 0.800 1.200 0.899 66.700 M40.495 67.251 C 40.417 85.522,40.497 89.582,40.940 89.950 C 41.332 90.276,60.225 90.425,110.240 90.499 L 179.000 90.600 178.952 222.200 L 178.904 353.800 179.180 222.400 C 179.332 150.130,179.379 90.776,179.286 90.501 C 179.151 90.106,164.790 89.981,110.058 89.901 L 41.000 89.800 40.795 67.400 L 40.590 45.000 40.495 67.251 M220.400 114.382 C 220.400 138.086,220.422 138.783,221.174 139.186 C 222.008 139.633,257.875 139.783,259.503 139.347 L 260.406 139.105 260.303 114.653 L 260.200 90.200 240.300 90.096 L 220.400 89.993 220.400 114.382 M260.000 114.557 C 260.000 136.216,259.935 138.740,259.367 138.957 C 258.541 139.274,222.259 139.274,221.433 138.957 C 220.865 138.740,220.800 136.216,220.800 114.557 L 220.800 90.400 240.400 90.400 L 260.000 90.400 260.000 114.557 M0.800 133.300 C 0.800 133.465,31.738 133.600,69.551 133.600 C 126.796 133.600,138.377 133.690,138.750 134.140 C 139.079 134.536,139.226 169.896,139.299 266.640 L 139.400 398.600 199.800 398.600 L 260.200 398.600 260.301 293.021 C 260.356 234.952,260.266 187.306,260.101 187.141 C 259.935 186.975,259.846 234.441,259.901 292.620 L 260.003 398.400 199.801 398.400 L 139.600 398.400 139.600 266.476 C 139.600 161.565,139.498 134.414,139.100 133.876 C 138.568 133.156,0.800 132.582,0.800 133.300 M220.586 187.300 C 220.482 187.575,220.353 225.510,220.298 271.600 L 220.200 355.400 200.400 355.606 L 180.600 355.811 200.492 355.906 L 220.385 356.000 220.600 355.100 C 220.815 354.201,221.101 186.800,220.887 186.800 C 220.826 186.800,220.690 187.025,220.586 187.300 M178.800 354.733 C 178.800 355.266,179.050 355.600,179.449 355.600 C 180.004 355.600,180.021 355.499,179.562 354.900 C 179.267 354.515,178.975 354.125,178.913 354.033 C 178.851 353.942,178.800 354.257,178.800 354.733 " stroke="none" fill="#8cccbf" fill-rule="evenodd"></path><path id="path2" d="M0.252 0.900 C -0.064 2.081,-0.073 134.143,0.243 134.967 C 0.463 135.541,6.844 135.600,68.441 135.600 L 136.396 135.600 136.498 267.232 C 136.599 397.011,136.611 398.872,137.376 399.432 C 138.039 399.917,147.171 400.000,199.661 400.000 L 261.169 400.000 261.984 399.125 L 262.800 398.249 262.800 292.755 L 262.800 187.262 261.569 186.031 L 260.338 184.800 240.424 184.800 L 220.509 184.800 219.454 186.322 L 218.400 187.843 218.394 270.822 C 218.391 316.460,218.251 353.585,218.084 353.322 C 217.698 352.715,212.821 352.742,212.023 353.356 C 211.596 353.685,211.518 353.681,211.722 353.341 C 211.927 352.998,208.828 352.881,199.600 352.881 C 190.383 352.881,187.269 352.999,187.460 353.341 C 187.617 353.621,187.508 353.606,187.179 353.300 C 186.528 352.696,182.653 352.636,181.574 353.214 C 180.809 353.623,180.800 352.012,180.800 221.894 C 180.800 117.347,180.697 89.937,180.300 89.083 L 179.800 88.006 111.300 88.003 L 42.800 88.000 42.800 68.233 C 42.800 57.361,42.909 48.180,43.043 47.832 C 43.357 47.013,356.934 46.846,357.439 47.664 C 357.615 47.948,357.547 48.015,357.262 47.838 C 357.008 47.681,356.780 47.698,356.756 47.876 C 356.519 49.624,356.554 50.848,356.847 51.029 C 357.373 51.354,357.274 53.366,356.703 53.937 C 356.308 54.332,356.316 54.501,356.746 54.767 C 357.140 55.010,357.161 55.177,356.823 55.386 C 356.486 55.594,356.480 55.814,356.800 56.200 C 357.118 56.584,357.118 56.803,356.800 57.000 C 356.488 57.193,356.504 57.444,356.857 57.868 C 357.238 58.328,357.244 58.637,356.884 59.214 C 356.570 59.717,356.552 60.046,356.828 60.217 C 357.106 60.389,357.097 60.642,356.800 61.000 C 356.480 61.386,356.486 61.606,356.823 61.814 C 357.164 62.025,357.150 62.184,356.768 62.420 C 356.346 62.680,356.348 62.855,356.775 63.370 C 357.117 63.782,357.167 64.173,356.918 64.500 C 356.461 65.103,356.474 68.393,356.938 69.118 C 357.131 69.420,357.058 69.889,356.760 70.248 C 356.348 70.745,356.350 70.922,356.768 71.180 C 357.150 71.416,357.164 71.575,356.823 71.786 C 356.486 71.994,356.480 72.214,356.800 72.600 C 357.097 72.958,357.106 73.211,356.828 73.383 C 356.552 73.554,356.570 73.883,356.884 74.386 C 357.244 74.963,357.238 75.272,356.857 75.732 C 356.504 76.156,356.488 76.407,356.800 76.600 C 357.118 76.797,357.118 77.016,356.800 77.400 C 356.480 77.786,356.486 78.006,356.823 78.214 C 357.164 78.425,357.150 78.584,356.768 78.820 C 356.346 79.080,356.348 79.255,356.775 79.770 C 357.117 80.182,357.167 80.573,356.918 80.900 C 356.461 81.503,356.474 84.793,356.938 85.518 C 357.131 85.820,357.058 86.289,356.760 86.648 C 356.345 87.148,356.357 87.328,356.826 87.624 C 357.173 87.844,346.362 87.990,329.447 87.994 L 301.493 88.000 300.547 89.100 L 299.601 90.200 299.613 111.800 C 299.626 134.592,299.589 134.131,301.474 135.135 C 302.756 135.818,398.837 135.803,399.520 135.120 C 400.218 134.422,400.218 1.178,399.520 0.480 C 399.148 0.108,354.224 0.000,199.767 0.000 L 0.493 0.000 0.252 0.900 M399.101 67.300 L 399.000 133.400 350.400 133.400 L 301.800 133.400 301.696 112.026 C 301.615 95.191,301.700 90.584,302.096 90.332 C 302.373 90.156,315.149 90.009,330.486 90.006 C 357.643 90.000,358.383 89.980,358.786 89.226 C 359.666 87.582,359.324 45.694,358.426 45.214 C 357.494 44.715,42.082 44.633,41.297 45.132 C 40.900 45.384,40.815 50.151,40.897 67.626 L 41.000 89.800 110.058 89.901 C 164.790 89.981,179.151 90.106,179.286 90.501 C 179.380 90.776,179.354 150.211,179.228 222.579 C 179.026 339.174,179.068 354.242,179.600 354.888 C 180.168 355.578,181.260 355.611,200.200 355.508 L 220.200 355.400 220.400 271.200 L 220.600 187.000 240.400 187.000 L 260.200 187.000 260.200 292.800 L 260.200 398.600 199.800 398.600 L 139.400 398.600 139.299 266.640 C 139.226 169.896,139.079 134.536,138.750 134.140 C 138.377 133.690,126.796 133.600,69.551 133.600 L 0.800 133.600 0.800 67.400 L 0.800 1.200 200.001 1.200 L 399.202 1.200 399.101 67.300 M219.684 88.615 C 219.401 88.937,219.276 89.200,219.407 89.200 C 219.538 89.200,219.365 89.600,219.023 90.089 C 218.342 91.061,218.041 138.000,218.715 138.000 C 218.888 138.000,219.057 138.362,219.090 138.804 C 219.259 141.048,218.794 141.000,240.515 141.000 L 260.488 141.000 261.644 139.615 L 262.800 138.230 262.800 114.515 C 262.800 98.972,262.662 90.800,262.400 90.800 C 262.180 90.800,262.000 90.621,262.000 90.403 C 262.000 90.185,261.608 89.555,261.128 89.003 L 260.256 88.000 240.228 88.015 C 223.172 88.028,220.123 88.117,219.684 88.615 M260.303 114.653 L 260.406 139.105 259.503 139.347 C 257.875 139.783,222.008 139.633,221.174 139.186 C 220.422 138.783,220.400 138.086,220.400 114.382 L 220.400 89.993 240.300 90.096 L 260.200 90.200 260.303 114.653 " stroke="none" fill="#a4d4cd" fill-rule="evenodd"></path><path id="path3" d="M1.600 67.000 C 1.600 102.750,1.555 132.094,1.500 132.208 C 1.371 132.476,138.064 132.469,138.332 132.201 C 138.718 131.815,137.769 131.807,70.400 131.604 L 2.600 131.400 2.499 67.424 C 2.418 16.508,2.500 3.384,2.899 3.130 C 3.986 2.440,396.281 2.738,396.973 3.430 C 397.541 3.998,397.593 10.242,397.501 67.730 L 397.400 131.400 350.843 131.502 C 316.771 131.576,304.140 131.482,303.743 131.153 C 302.860 130.420,302.947 92.583,303.833 92.243 C 304.181 92.109,316.511 92.000,331.233 92.000 C 354.759 92.000,358.000 91.927,358.000 91.400 C 358.000 90.872,354.644 90.800,330.200 90.800 L 302.400 90.800 302.400 111.700 L 302.400 132.600 350.400 132.600 L 398.400 132.600 398.400 67.543 C 398.400 8.588,398.341 2.463,397.767 2.243 C 397.419 2.109,308.139 2.000,199.367 2.000 L 1.600 2.000 1.600 67.000 M41.078 43.055 C 40.937 43.196,40.917 43.466,41.034 43.656 C 41.402 44.250,358.898 44.094,358.700 43.500 C 358.521 42.964,41.613 42.520,41.078 43.055 M360.073 45.687 C 359.433 46.327,359.388 89.022,360.027 89.416 C 360.800 89.895,360.815 89.486,360.814 67.399 C 360.813 44.475,360.829 44.931,360.073 45.687 M39.175 46.015 C 38.826 47.179,39.224 89.200,39.584 89.200 C 40.041 89.200,40.131 48.257,39.678 46.615 C 39.483 45.909,39.280 45.666,39.175 46.015 M41.601 91.399 C 41.157 91.933,48.618 92.001,108.851 92.005 C 146.113 92.008,177.003 92.119,177.496 92.251 L 178.392 92.491 178.502 111.746 L 178.612 131.000 178.606 111.000 L 178.600 91.000 110.350 90.899 C 50.031 90.809,42.042 90.868,41.601 91.399 M221.200 92.000 C 221.200 93.352,221.394 93.463,222.257 92.600 C 222.772 92.085,225.363 92.000,240.610 92.000 L 258.364 92.000 258.601 93.300 C 258.732 94.015,258.785 104.455,258.719 116.500 C 258.654 128.545,258.734 138.355,258.898 138.300 C 259.062 138.245,259.242 127.535,259.298 114.500 L 259.400 90.800 240.300 90.800 L 221.200 90.800 221.200 92.000 M258.520 187.481 C 258.179 187.604,258.150 187.942,258.420 188.653 C 258.936 190.009,258.937 396.268,258.421 396.587 C 257.923 396.895,141.423 396.861,140.619 396.552 C 140.168 396.379,140.000 396.570,140.000 397.257 L 140.000 398.200 199.603 398.104 L 259.206 398.008 259.204 292.738 C 259.203 234.840,259.156 187.433,259.101 187.389 C 259.045 187.345,258.784 187.387,258.520 187.481 M180.000 356.792 C 180.845 357.326,219.066 357.341,219.396 356.807 C 219.565 356.533,213.055 356.402,199.524 356.406 C 186.672 356.410,179.617 356.549,180.000 356.792 " stroke="none" fill="#77c2b4" fill-rule="evenodd"></path><path id="path4" d="M359.200 89.472 C 359.200 89.695,358.795 90.073,358.300 90.312 C 357.655 90.623,357.585 90.754,358.051 90.773 C 358.790 90.804,359.847 89.714,359.457 89.324 C 359.316 89.182,359.200 89.249,359.200 89.472 M76.700 90.700 C 95.235 90.757,125.565 90.757,144.100 90.700 C 162.635 90.642,147.470 90.595,110.400 90.595 C 73.330 90.595,58.165 90.642,76.700 90.700 M178.800 110.920 L 179.000 131.400 179.104 111.224 C 179.161 100.127,179.071 90.911,178.904 90.744 C 178.737 90.576,178.690 99.656,178.800 110.920 M231.500 90.700 C 236.395 90.763,244.405 90.763,249.300 90.700 C 254.195 90.636,250.190 90.584,240.400 90.584 C 230.610 90.584,226.605 90.636,231.500 90.700 M317.100 90.700 C 324.415 90.761,336.385 90.761,343.700 90.700 C 351.015 90.639,345.030 90.589,330.400 90.589 C 315.770 90.589,309.785 90.639,317.100 90.700 M302.186 111.800 C 302.186 123.020,302.237 127.668,302.300 122.128 C 302.362 116.588,302.362 107.408,302.300 101.728 C 302.237 96.048,302.186 100.580,302.186 111.800 M220.987 115.600 C 220.987 128.470,221.038 133.735,221.100 127.300 C 221.162 120.865,221.162 110.335,221.100 103.900 C 221.038 97.465,220.987 102.730,220.987 115.600 M259.787 115.000 C 259.787 127.540,259.838 132.612,259.900 126.272 C 259.962 119.931,259.962 109.671,259.900 103.472 C 259.838 97.272,259.787 102.460,259.787 115.000 M302.342 132.902 C 302.508 133.068,324.054 133.158,350.222 133.102 L 397.800 133.000 349.920 132.800 C 323.586 132.690,302.176 132.736,302.342 132.902 M36.132 133.100 C 55.014 133.157,85.794 133.157,104.532 133.100 C 123.269 133.042,107.820 132.995,70.200 132.995 C 32.580 132.995,17.249 133.042,36.132 133.100 M139.070 133.600 C 139.252 133.930,139.491 193.330,139.601 265.600 L 139.802 397.000 139.901 265.776 C 139.991 146.887,139.941 134.480,139.370 133.776 C 139.024 133.349,138.889 133.270,139.070 133.600 M221.904 138.868 C 221.627 139.044,229.935 139.191,240.367 139.194 C 250.798 139.197,259.202 139.068,259.041 138.907 C 258.640 138.506,222.534 138.468,221.904 138.868 M221.251 186.984 C 221.363 187.096,230.024 187.197,240.498 187.208 C 252.645 187.221,259.615 187.371,259.741 187.624 C 259.851 187.842,259.894 187.791,259.837 187.510 C 259.755 187.107,255.677 186.977,240.390 186.890 C 229.752 186.830,221.139 186.872,221.251 186.984 M220.893 271.200 C 220.835 317.290,220.656 355.204,220.494 355.454 C 220.332 355.703,219.840 355.997,219.400 356.107 C 218.639 356.297,218.642 356.309,219.451 356.354 C 221.265 356.452,221.207 359.443,221.100 271.358 L 220.998 187.400 220.893 271.200 M259.797 292.800 C 259.797 350.330,259.843 373.865,259.900 345.100 C 259.957 316.335,259.957 269.265,259.900 240.500 C 259.843 211.735,259.797 235.270,259.797 292.800 M178.565 211.200 C 178.565 215.050,178.625 216.625,178.698 214.700 C 178.771 212.775,178.771 209.625,178.698 207.700 C 178.625 205.775,178.565 207.350,178.565 211.200 M178.595 292.600 C 178.595 326.920,178.642 340.901,178.700 323.669 C 178.758 306.436,178.758 278.356,178.700 261.269 C 178.642 244.181,178.595 258.280,178.595 292.600 " stroke="none" fill="#84c4bc" fill-rule="evenodd"></path></g></svg>